<svg xmlns="http://www.w3.org/2000/svg" viewBox="0 0 175.58054 29.3027"><circle cx="170.72274" cy="24.37448" r="4.3578" style="fill:#fff;stroke:#fff;stroke-miterlimit:10"/><path d="M128.67969,82.7998v6.3003h8.46v3.9956h-8.46v6.66016h9.54v4.104H123.63965V78.6958h14.58008v4.104Z" transform="translate(-123.13965 -75.38138)" style="fill:#ca1f7b;stroke:#ca1f7b;stroke-miterlimit:10"/><path d="M151.10742,99.21582l5.04-15.2998h5.36426l-7.37988,19.94384h-6.12012L140.66748,83.916h5.3999Z" transform="translate(-123.13965 -75.38138)" style="fill:#ca1f7b;stroke:#ca1f7b;stroke-miterlimit:10"/><path d="M182.75146,95.3999H168.17139a4.95675,4.95675,0,0,0,1.5122,3.38379,4.65982,4.65982,0,0,0,3.27588,1.22412,4.115,4.115,0,0,0,3.9961-2.41211h5.436a9.08525,9.08525,0,0,1-3.312,4.73438,9.66832,9.66832,0,0,1-6.01221,1.854,10.402,10.402,0,0,1-5.166-1.27832,8.98892,8.98892,0,0,1-3.564-3.61767,11.08542,11.08542,0,0,1-1.27783-5.40039,11.28612,11.28612,0,0,1,1.26025-5.436,8.78967,8.78967,0,0,1,3.52784-3.59961,11.32616,11.32616,0,0,1,10.314-.03613A8.61842,8.61842,0,0,1,181.65381,88.29a10.51582,10.51582,0,0,1,1.2417,5.166A11.92824,11.92824,0,0,1,182.75146,95.3999Zm-5.07568-3.38427a3.99812,3.99812,0,0,0-1.4043-3.11377,4.97589,4.97589,0,0,0-3.34814-1.16993,4.57427,4.57427,0,0,0-3.1499,1.13379,4.98639,4.98639,0,0,0-1.56592,3.14991Z" transform="translate(-123.13965 -75.38138)" style="fill:#ca1f7b;stroke:#ca1f7b;stroke-miterlimit:10"/><path d="M194.145,84.52783a7.06189,7.06189,0,0,1,3.582-.8999v5.292h-1.332a5.1087,5.1087,0,0,0-3.582,1.11572q-1.2063,1.11695-1.20606,3.88819v9.936h-5.04V83.916h5.04v3.0957A7.08916,7.08916,0,0,1,194.145,84.52783Z" transform="translate(-123.13965 -75.38138)" style="fill:#ca1f7b;stroke:#ca1f7b;stroke-miterlimit:10"/><path d="M201.021,88.45166a8.83814,8.83814,0,0,1,3.27588-3.59961,8.72272,8.72272,0,0,1,4.626-1.26025,8.13271,8.13271,0,0,1,3.90625.8999,7.93681,7.93681,0,0,1,2.68164,2.26807V83.916h5.07617v19.94384h-5.07617v-2.916a7.49548,7.49548,0,0,1-2.68164,2.32178,8.2038,8.2038,0,0,1-3.94238.91845,8.47256,8.47256,0,0,1-4.58984-1.29638,9.06133,9.06133,0,0,1-3.27588-3.65381,11.73135,11.73135,0,0,1-1.20606-5.418A11.54292,11.54292,0,0,1,201.021,88.45166Zm13.77,2.28613a5.08519,5.08519,0,0,0-1.94385-2.01611,5.20025,5.20025,0,0,0-2.62842-.70166,5.06158,5.06158,0,0,0-4.51758,2.68164,6.25981,6.25981,0,0,0-.73828,3.11426,6.46185,6.46185,0,0,0,.73828,3.1499,5.3027,5.3027,0,0,0,1.94385,2.06982,4.93221,4.93221,0,0,0,2.57373.72022,5.19582,5.19582,0,0,0,2.62842-.70215,5.08068,5.08068,0,0,0,1.94385-2.01562,7.25382,7.25382,0,0,0,0-6.3003Z" transform="translate(-123.13965 -75.38138)" style="fill:#ca1f7b;stroke:#ca1f7b;stroke-miterlimit:10"/><path d="M234.6626,88.05566h-3.4917v15.8042h-5.11231V88.05566h-2.26806V83.916h2.26806V82.90771q0-3.67162,2.08789-5.3999,2.08742-1.72778,6.3003-1.62011v4.248a3.74294,3.74294,0,0,0-2.55615.61231,3.0619,3.0619,0,0,0-.71973,2.33984V83.916h3.4917Z" transform="translate(-123.13965 -75.38138)" style="fill:#ca1f7b;stroke:#ca1f7b;stroke-miterlimit:10"/><path d="M243.80615,88.05566V97.7041a1.9065,1.9065,0,0,0,.48584,1.45752,2.38356,2.38356,0,0,0,1.63819.4502H248.27v4.248h-3.168q-6.37207,0-6.37207-6.19189V88.05566h-2.376V83.916h2.376V78.98389h5.07617V83.916H248.27v4.13964Z" transform="translate(-123.13965 -75.38138)" style="fill:#ca1f7b;stroke:#ca1f7b;stroke-miterlimit:10"/><path d="M270.30127,95.3999H255.72119a4.95676,4.95676,0,0,0,1.51221,3.38379,4.6598,4.6598,0,0,0,3.27588,1.22412,4.115,4.115,0,0,0,3.99609-2.41211h5.436a9.08532,9.08532,0,0,1-3.312,4.73438,9.66831,9.66831,0,0,1-6.0122,1.854,10.40207,10.40207,0,0,1-5.166-1.27832,8.989,8.989,0,0,1-3.564-3.61767,11.08542,11.08542,0,0,1-1.27783-5.40039,11.28612,11.28612,0,0,1,1.26025-5.436,8.78959,8.78959,0,0,1,3.52783-3.59961,11.32618,11.32618,0,0,1,10.314-.03613A8.61834,8.61834,0,0,1,269.20361,88.29a10.51582,10.51582,0,0,1,1.2417,5.166A11.92942,11.92942,0,0,1,270.30127,95.3999Zm-5.07568-3.38427a3.99815,3.99815,0,0,0-1.4043-3.11377,4.97592,4.97592,0,0,0-3.34815-1.16993,4.57429,4.57429,0,0,0-3.1499,1.13379,4.98644,4.98644,0,0,0-1.56592,3.14991Z" transform="translate(-123.13965 -75.38138)" style="fill:#ca1f7b;stroke:#ca1f7b;stroke-miterlimit:10"/><path d="M281.69434,84.52783a7.06573,7.06573,0,0,1,3.582-.8999v5.292h-1.332a5.10656,5.10656,0,0,0-3.58155,1.11572q-1.2063,1.11695-1.20605,3.88819v9.936h-5.04V83.916h5.04v3.0957A7.09172,7.09172,0,0,1,281.69434,84.52783Z" transform="translate(-123.13965 -75.38138)" style="fill:#ca1f7b;stroke:#ca1f7b;stroke-miterlimit:10"/></svg>