<svg xmlns="http://www.w3.org/2000/svg" viewBox="0 0 144.89887 27.00239"><ellipse cx="7.81388" cy="19.36674" rx="6.95181" ry="6.28941" style="fill:#fff;stroke:#f0f;stroke-miterlimit:10"/><ellipse cx="7.81388" cy="6.78941" rx="6.95181" ry="6.28941" style="fill:#fff;stroke:#f0f;stroke-miterlimit:10"/><ellipse cx="3.51768" cy="13.07882" rx="3.01768" ry="10.86352" style="fill:#fff;stroke:#f0f;stroke-miterlimit:10"/><ellipse cx="7.81388" cy="20.21298" rx="6.95181" ry="6.28941" style="fill:#fff;stroke:#f0f;stroke-miterlimit:10"/><ellipse cx="7.81388" cy="6.78941" rx="6.95181" ry="6.28941" style="fill:#fff;stroke:#f0f;stroke-miterlimit:10"/><path d="M327.29048,110.22489a6.2131,6.2131,0,0,1-2.00193,4.79626,8.38869,8.38869,0,0,1-10.4545.02593,5.96457,5.96457,0,0,1-2.0378-4.66664,6.45919,6.45919,0,0,1,1.95169-4.88053,7.30775,7.30775,0,0,1,5.28107-1.87313,7.48672,7.48672,0,0,1,5.25236,1.83425A6.15209,6.15209,0,0,1,327.29048,110.22489Zm-4.707,0a2.62838,2.62838,0,0,0-.70319-1.80833,2.33436,2.33436,0,0,0-1.82254-.78425,2.41164,2.41164,0,0,0-1.86559.8037,2.68407,2.68407,0,0,0,0,3.59072,2.55046,2.55046,0,0,0,3.71683,0A2.60569,2.60569,0,0,0,322.58344,110.22489Z" transform="translate(-294.36643 -96.71721)" style="fill:#fff;stroke:#f0f;stroke-miterlimit:10"/><path d="M343.0388,116.2267q0,.35-.40182.40185t-2.09521.05185a18.12147,18.12147,0,0,1-2.23871-.07777.48087.48087,0,0,1-.43052-.53148q0-.60926.043-1.84073t.043-1.8537q0-.47962-.0287-1.43239t-.0287-1.4324q0-1.77593-1.70774-1.77592a2.66425,2.66425,0,0,0-1.30591.44074q-.80364.49258-.80364.97222v6.99995a.4404.4404,0,0,1-.44487.47963q-.50227.05186-2.05216.05185a18.48746,18.48746,0,0,1-2.18131-.07777q-.44487-.06482-.44487-.42778,0-1.01111.01435-3.04628t.01435-3.05924a18.13523,18.13523,0,0,0-.55968-5.06849.84341.84341,0,0,1-.0287-.19444.2864.2864,0,0,1,.21526-.28518q.90409-.09075,2.41092-.28519,2.28177-.40185,2.56878-.40185.15786,0,.244.875t.244.875q-.15786,0,1.5427-.90092a6.56184,6.56184,0,0,1,2.97778-.90092,5.55368,5.55368,0,0,1,3.04235.77777,2.81974,2.81974,0,0,1,1.36332,2.48888v4.13516q0,.84258.01435,2.52128T343.0388,116.2267Z" transform="translate(-294.36643 -96.71721)" style="fill:#fff;stroke:#f0f;stroke-miterlimit:10"/><path d="M358.38371,109.56378q0,1.30925-.9328,1.49073-.15786.02592-2.9706.28518-1.69338.16852-5.05145.40185a1.90146,1.90146,0,0,0,1.21981,1.28333,4.69623,4.69623,0,0,0,1.89429.363,5.87836,5.87836,0,0,0,2.56878-.62222l1.09066-.62222a3.90072,3.90072,0,0,1,1.01172,1.32222,4.60568,4.60568,0,0,1,.71037,1.51665q0,.09075-.21527.29815-1.75079,1.69813-5.43892,1.69814a8.15572,8.15572,0,0,1-5.51068-1.80184,6.08631,6.08631,0,0,1-2.15261-4.887,6.5843,6.5843,0,0,1,1.923-4.887,7.11976,7.11976,0,0,1,5.25237-1.97036,6.56553,6.56553,0,0,1,4.67833,1.81481A5.73687,5.73687,0,0,1,358.38371,109.56378ZM353.361,108.773a1.90691,1.90691,0,0,0-.63144-1.41295,2.09467,2.09467,0,0,0-1.50682-.60926,1.87965,1.87965,0,0,0-1.49248.687,2.21653,2.21653,0,0,0-.54532,1.49073q0,.35.40182.35a27.82754,27.82754,0,0,0,3.30066-.29815Q353.361,108.91564,353.361,108.773Z" transform="translate(-294.36643 -96.71721)" style="fill:#fff;stroke:#f0f;stroke-miterlimit:10"/><path d="M369.374,108.07305q-.01436,0-.86822-.20741a6.156,6.156,0,0,0-1.38484-.20741,2.90808,2.90808,0,0,0-2.03781.69352,2.37872,2.37872,0,0,0-.76058,1.84721,2.288,2.288,0,0,0,.83234,1.87314,3.314,3.314,0,0,0,2.167.68055,4.151,4.151,0,0,0,1.42072-.29167,7.15017,7.15017,0,0,0,.74624-.29166q.244,0,.63143,1.64629a11.901,11.901,0,0,1,.33006,1.99628q0,.49258-1.77948.84259a12.04262,12.04262,0,0,1-2.22437.27222,7.32653,7.32653,0,0,1-5.20931-1.91851,6.58524,6.58524,0,0,1,.00718-9.56013,7.29057,7.29057,0,0,1,5.20213-1.938,8.14548,8.14548,0,0,1,3.75989.82963q.37313.18147.37312.35a11.65334,11.65334,0,0,1-.43052,1.52962q-.40182,1.30926-.5238,1.58148T369.374,108.07305Z" transform="translate(-294.36643 -96.71721)" style="fill:#fff;stroke:#f0f;stroke-miterlimit:10"/><path d="M385.63015,110.22489a6.2131,6.2131,0,0,1-2.00193,4.79626,8.38869,8.38869,0,0,1-10.4545.02593,5.9646,5.9646,0,0,1-2.0378-4.66664,6.4592,6.4592,0,0,1,1.9517-4.88053,7.30772,7.30772,0,0,1,5.28106-1.87313,7.48675,7.48675,0,0,1,5.25237,1.83425A6.15212,6.15212,0,0,1,385.63015,110.22489Zm-4.707,0a2.62837,2.62837,0,0,0-.70318-1.80833,2.33438,2.33438,0,0,0-1.82254-.78425,2.41166,2.41166,0,0,0-1.8656.8037,2.6841,2.6841,0,0,0,0,3.59072,2.55047,2.55047,0,0,0,3.71684,0A2.60568,2.60568,0,0,0,380.92311,110.22489Z" transform="translate(-294.36643 -96.71721)" style="fill:#fff;stroke:#f0f;stroke-miterlimit:10"/><path d="M396.5957,108.52675q0,.50554-.61708.50555-.27267,0-.79647-.03241t-.78211-.0324a2.77741,2.77741,0,0,0-1.62163.337,1.67622,1.67622,0,0,0-.43053,1.3611q0,.55741.02153,1.69166t.02153,1.69166q0,.37591.0574,1.12129t.0574,1.10832q0,.31112-.47357.35-.68884.05186-2.10956.05185-1.36332,0-2.18131-.07777-.47357-.05186-.47357-.42778,0-1.037.01435-3.10461t.01435-3.10461a17.10228,17.10228,0,0,0-.61708-5.01664.84293.84293,0,0,1-.0287-.19444.25905.25905,0,0,1,.21526-.25926q.78929-.07778,2.31046-.28518,2.26741-.40185,2.33917-.40185.25832,0,.33007.81666t.25831.81666q-.20091,0,1.17676-.68055a5.98692,5.98692,0,0,1,2.65488-.68055q.80364,0,.80364.31111a9.16885,9.16885,0,0,1-.0861,1.063q-.0861.73889-.10045,1.063,0,.37593.01435.99814Q396.5957,108.28046,396.5957,108.52675Z" transform="translate(-294.36643 -96.71721)" style="fill:#fff;stroke:#f0f;stroke-miterlimit:10"/><path d="M412.33127,116.2267q0,.35-.40183.40185t-2.0952.05185a18.12136,18.12136,0,0,1-2.23871-.07777.48087.48087,0,0,1-.43053-.53148q0-.60926.04306-1.84073t.043-1.8537q0-.47962-.0287-1.43239t-.0287-1.4324q0-1.77593-1.70774-1.77592a2.66428,2.66428,0,0,0-1.30592.44074q-.80364.49258-.80364.97222v6.99995a.4404.4404,0,0,1-.44487.47963q-.50227.05186-2.05215.05185a18.48734,18.48734,0,0,1-2.18131-.07777q-.44487-.06482-.44487-.42778,0-1.01111.01435-3.04628t.01435-3.05924a18.13523,18.13523,0,0,0-.55968-5.06849.84286.84286,0,0,1-.0287-.19444.28639.28639,0,0,1,.21526-.28518q.9041-.09075,2.41092-.28519,2.28177-.40185,2.56878-.40185.15786,0,.244.875t.244.875a6.73451,6.73451,0,0,1,1.54271-.90092,6.5618,6.5618,0,0,1,2.97777-.90092,5.55369,5.55369,0,0,1,3.04236.77777,2.81975,2.81975,0,0,1,1.36331,2.48888v4.13516q0,.84258.01435,2.52128T412.33127,116.2267Z" transform="translate(-294.36643 -96.71721)" style="fill:#fff;stroke:#f0f;stroke-miterlimit:10"/><path d="M427.67617,109.56378q0,1.30925-.93279,1.49073-.15786.02592-2.9706.28518-1.6934.16852-5.05146.40185a1.90148,1.90148,0,0,0,1.21981,1.28333,4.69628,4.69628,0,0,0,1.8943.363,5.87836,5.87836,0,0,0,2.56878-.62222l1.09065-.62222a3.90069,3.90069,0,0,1,1.01173,1.32222,4.60579,4.60579,0,0,1,.71036,1.51665q0,.09075-.21526.29815-1.75079,1.69813-5.43892,1.69814a8.1557,8.1557,0,0,1-5.51068-1.80184,6.08631,6.08631,0,0,1-2.15261-4.887,6.5843,6.5843,0,0,1,1.923-4.887,7.11972,7.11972,0,0,1,5.25236-1.97036,6.56556,6.56556,0,0,1,4.67834,1.81481A5.73686,5.73686,0,0,1,427.67617,109.56378Zm-5.02275-.79074a1.90694,1.90694,0,0,0-.63143-1.41295,2.09468,2.09468,0,0,0-1.50683-.60926,1.87962,1.87962,0,0,0-1.49247.687,2.21654,2.21654,0,0,0-.54533,1.49073q0,.35.40182.35a27.82766,27.82766,0,0,0,3.30067-.29815Q422.65342,108.91564,422.65342,108.773Z" transform="translate(-294.36643 -96.71721)" style="fill:#fff;stroke:#f0f;stroke-miterlimit:10"/><path d="M438.62179,108.52675q0,.50554-.61708.50555-.27267,0-.79647-.03241t-.78211-.0324a2.77743,2.77743,0,0,0-1.62163.337,1.67622,1.67622,0,0,0-.43052,1.3611q0,.55741.02152,1.69166t.02153,1.69166q0,.37591.0574,1.12129t.0574,1.10832q0,.31112-.47357.35-.68883.05186-2.10956.05185-1.36332,0-2.18131-.07777-.47356-.05186-.47357-.42778,0-1.037.01435-3.10461t.01435-3.10461a17.10228,17.10228,0,0,0-.61708-5.01664.84348.84348,0,0,1-.0287-.19444.25905.25905,0,0,1,.21526-.25926q.78929-.07778,2.31047-.28518,2.26742-.40185,2.33916-.40185.25831,0,.33007.81666t.25831.81666q-.20091,0,1.17676-.68055a5.98692,5.98692,0,0,1,2.65489-.68055q.80364,0,.80364.31111a9.16705,9.16705,0,0,1-.08611,1.063q-.0861.73889-.10045,1.063,0,.37593.01435.99814Q438.62178,108.28046,438.62179,108.52675Z" transform="translate(-294.36643 -96.71721)" style="fill:#fff;stroke:#f0f;stroke-miterlimit:10"/></svg>